<?xml version="1.0" standalone="no"?>
<!DOCTYPE svg PUBLIC "-//W3C//DTD SVG 20010904//EN"
 "http://www.w3.org/TR/2001/REC-SVG-20010904/DTD/svg10.dtd">
<svg version="1.0" xmlns="http://www.w3.org/2000/svg"
 width="240pt" height="64pt" viewBox="0 0 360 96"
 preserveAspectRatio="xMidYMid meet" >

<g transform="translate(0.000000,96.000000) scale(0.100000,-0.100000)"
fill="#fff" stroke="none">
<path d="M343 833 c9 -2 23 -2 30 0 6 3 -1 5 -18 5 -16 0 -22 -2 -12 -5z"/>
<path d="M451 836 c2 -2 22 -6 44 -9 28 -5 34 -4 20 3 -19 8 -73 14 -64 6z"/>
<path d="M251 809 c-89 -40 -188 -146 -205 -219 -4 -16 0 -12 10 10 43 95 126
173 223 211 25 10 39 18 31 18 -8 0 -35 -9 -59 -20z"/>
<path d="M590 789 c72 -39 132 -99 160 -160 13 -27 25 -47 27 -45 3 2 -5 24
-17 48 -30 58 -105 134 -162 164 -68 34 -74 29 -8 -7z"/>
<path d="M2212 740 c7 -11 16 -20 20 -20 12 0 1 -99 -13 -116 -7 -9 -22 -20
-34 -24 -17 -8 -18 -9 -2 -9 10 -1 29 10 42 24 l25 24 25 -24 c25 -26 50 -32
60 -15 3 6 -2 10 -13 10 -11 0 -30 9 -44 19 -19 15 -24 28 -22 60 1 24 9 50
19 61 10 11 13 20 7 20 -6 0 -15 -8 -21 -17 -9 -17 -11 -16 -31 5 -26 27 -34
29 -18 2z"/>
<path d="M2780 660 c0 -65 4 -99 10 -95 6 3 10 36 10 71 0 48 3 65 13 61 6 -2
12 -16 12 -30 -1 -15 3 -27 7 -27 4 0 8 16 8 35 0 28 -4 35 -20 35 -13 0 -20
7 -20 19 0 11 -4 23 -10 26 -6 4 -10 -30 -10 -95z"/>
<path d="M3454 744 c3 -8 6 -18 6 -20 0 -2 5 -4 10 -4 16 0 11 27 -6 34 -12 5
-15 2 -10 -10z"/>
<path d="M555 730 c-10 -11 -28 -20 -41 -20 -12 0 -35 -11 -51 -24 -16 -13
-46 -27 -66 -31 -42 -8 -55 -21 -37 -38 9 -9 11 -9 8 2 -3 13 6 18 47 23 11 2
26 11 33 21 7 9 18 17 25 17 8 0 8 -3 -1 -12 -7 -7 -12 -17 -12 -22 0 -6 7 -2
16 9 11 15 17 17 23 7 6 -10 10 -10 21 3 11 13 9 15 -16 15 -25 1 -27 2 -11
11 10 6 24 8 32 5 7 -2 21 6 29 20 19 28 38 31 56 9 11 -13 9 -21 -10 -48 -19
-26 -20 -29 -3 -14 50 43 44 2 -8 -57 l-41 -47 11 -60 c13 -62 9 -79 -14 -79
-8 0 -22 -11 -31 -25 -14 -22 -14 -29 -2 -67 11 -31 21 -44 36 -46 12 -2 22
-10 22 -18 0 -8 4 -13 9 -12 9 3 11 -2 11 -22 0 -6 -68 -10 -185 -10 l-185 0
0 26 c0 17 7 28 18 31 17 4 17 8 -6 54 -33 66 -40 140 -18 175 15 22 20 23 33
12 15 -12 15 -11 2 11 -11 18 -11 25 -1 28 6 3 12 11 12 18 0 11 28 26 55 29
11 1 25 17 25 28 0 9 -70 -31 -91 -51 -8 -9 -18 -23 -22 -31 -4 -8 -14 -26
-22 -40 -21 -35 -18 -90 6 -162 15 -43 18 -63 10 -66 -6 -2 -11 -19 -11 -38
l0 -34 194 0 c183 0 194 1 199 19 5 22 -30 61 -55 61 -17 0 -40 72 -31 95 2 8
18 18 34 24 32 11 33 16 19 91 -9 50 -8 56 14 79 45 49 59 79 52 113 -12 59
-47 76 -81 38z"/>
<path d="M1035 740 c-31 -6 -34 -7 -12 -9 35 -1 34 -7 -8 -47 -20 -21 -28 -34
-20 -34 11 0 15 -13 15 -47 0 -25 3 -43 8 -39 11 12 11 86 -1 86 -5 0 -2 9 9
21 17 19 19 19 25 2 3 -10 1 -21 -5 -25 -6 -4 -2 -6 9 -6 17 2 20 8 18 43 -1
37 2 43 25 52 l27 11 -25 0 c-14 -1 -43 -4 -65 -8z"/>
<path d="M1296 736 c3 -9 11 -16 16 -16 13 0 5 23 -10 28 -7 2 -10 -2 -6 -12z"/>
<path d="M1350 712 c0 -21 -8 -49 -17 -62 -15 -22 -15 -23 -1 -12 15 12 17 9
20 -25 3 -37 4 -38 42 -38 22 0 41 5 43 12 3 8 -8 10 -37 6 l-40 -6 6 82 c4
55 2 81 -5 81 -6 0 -11 -17 -11 -38z"/>
<path d="M1392 705 c5 -37 3 -45 -11 -45 -14 -1 -14 -2 1 -11 10 -5 15 -16 12
-24 -4 -8 -1 -15 5 -15 6 0 11 9 11 19 0 15 5 18 23 15 l22 -5 -22 17 c-17 12
-23 27 -23 55 0 22 -5 39 -11 39 -8 0 -10 -15 -7 -45z"/>
<path d="M1648 723 c0 -16 -2 -32 -3 -38 -2 -5 -3 -18 -4 -27 0 -10 -15 -33
-32 -53 -17 -19 -27 -35 -22 -35 17 0 61 54 69 83 6 28 7 28 33 -25 25 -50 50
-67 58 -41 2 6 -6 14 -17 18 -27 8 -64 87 -57 121 3 16 0 24 -9 24 -8 0 -15
-12 -16 -27z"/>
<path d="M1894 742 c-6 -4 -13 -20 -16 -37 -3 -16 -9 -38 -13 -47 -4 -11 -3
-18 4 -18 6 0 11 6 11 13 0 7 9 19 20 27 14 10 16 16 7 22 -9 6 -9 8 1 8 6 0
12 5 12 11 0 5 -4 7 -10 4 -5 -3 -10 -2 -10 4 0 5 8 12 18 14 12 3 13 5 2 6
-8 0 -20 -3 -26 -7z"/>
<path d="M1940 730 c-9 -17 -8 -19 7 -13 16 6 17 5 3 -13 -8 -10 -19 -22 -24
-25 -4 -4 4 -6 18 -6 25 0 26 2 24 38 -2 43 -12 49 -28 19z"/>
<path d="M2000 717 c0 -20 3 -42 6 -51 11 -28 20 -9 18 36 -2 52 -24 65 -24
15z"/>
<path d="M2473 723 c-18 -37 -11 -38 16 -3 14 20 17 30 9 30 -7 0 -19 -12 -25
-27z"/>
<path d="M2535 715 c1 -23 -3 -35 -12 -35 -8 0 -13 -13 -13 -35 0 -19 -4 -35
-8 -35 -10 0 -2 72 10 87 5 7 5 13 0 17 -6 3 -19 -12 -30 -34 -10 -22 -16 -37
-11 -34 4 2 9 -17 11 -43 l3 -48 18 34 c9 19 17 42 17 52 0 10 5 21 11 24 7 5
10 -9 8 -44 -2 -28 0 -53 3 -57 4 -3 8 37 10 90 2 62 -1 96 -7 96 -6 0 -10
-16 -10 -35z"/>
<path d="M2600 740 c-12 -8 -11 -10 8 -10 12 0 22 5 22 10 0 13 -11 13 -30 0z"/>
<path d="M2860 695 c0 -30 5 -55 10 -55 6 0 10 25 10 55 0 30 -4 55 -10 55 -5
0 -10 -25 -10 -55z"/>
<path d="M2903 733 c9 -9 20 -13 24 -9 4 4 1 11 -7 16 -25 16 -35 11 -17 -7z"/>
<path d="M3084 742 c-6 -4 -14 -23 -18 -42 l-6 -35 14 35 14 35 1 -42 c1 -32
-3 -43 -14 -43 -8 0 -15 -5 -15 -11 0 -6 7 -9 15 -5 12 4 15 -3 15 -35 0 -24
4 -38 10 -34 6 3 10 21 10 40 0 32 28 95 42 95 8 0 -4 -36 -24 -73 -10 -20
-10 -21 5 -9 9 8 22 29 29 48 6 19 15 34 19 34 12 0 -9 -63 -31 -92 -11 -16
-16 -28 -11 -28 12 0 40 43 56 88 l14 37 0 -42 c1 -52 -7 -73 -28 -73 -14 -1
-13 -2 2 -11 27 -16 34 -3 42 73 l7 66 -41 -5 c-41 -6 -51 3 -29 25 9 9 8 12
-5 12 -10 0 -17 -8 -17 -20 0 -11 -5 -20 -11 -20 -6 0 -13 9 -16 20 -6 21 -12
24 -29 12z m39 -62 c-3 -11 -9 -20 -13 -20 -5 0 -6 9 -3 20 3 11 9 20 13 20 5
0 6 -9 3 -20z"/>
<path d="M3369 728 c-7 -12 -12 -52 -13 -89 -1 -62 0 -66 17 -57 10 5 25 7 33
4 19 -7 18 9 -3 25 -11 10 -14 10 -9 2 4 -7 3 -13 -2 -13 -10 0 -22 100 -15
110 8 9 23 -26 23 -52 0 -16 5 -28 10 -28 6 0 10 14 10 30 0 17 4 30 9 30 5 0
8 -26 7 -58 l-3 -57 38 0 c33 0 38 3 41 27 3 19 0 28 -9 28 -7 0 -13 -9 -13
-20 0 -13 -7 -20 -20 -20 -25 0 -27 27 -2 33 16 4 16 5 0 6 -14 1 -18 10 -19
39 -1 20 0 43 1 51 1 8 -4 12 -14 8 -8 -3 -20 1 -26 9 -17 20 -27 18 -41 -8z
m46 -27 c-2 -2 -11 3 -19 12 -8 8 -12 17 -9 21 3 3 12 -2 19 -12 7 -9 11 -19
9 -21z"/>
<path d="M2300 730 c0 -5 7 -10 16 -10 8 0 12 5 9 10 -3 6 -10 10 -16 10 -5 0
-9 -4 -9 -10z"/>
<path d="M2570 720 c0 -11 4 -20 9 -20 5 0 7 9 4 20 -3 11 -7 20 -9 20 -2 0
-4 -9 -4 -20z"/>
<path d="M3494 713 c-12 -28 -15 -73 -4 -73 6 0 11 9 11 20 2 33 4 38 12 46
10 10 9 24 -2 24 -5 0 -12 -8 -17 -17z"/>
<path d="M1110 710 c-12 -8 -9 -10 13 -10 16 0 26 4 22 10 -8 12 -16 12 -35 0z"/>
<path d="M988 703 c6 -2 18 -2 25 0 6 3 1 5 -13 5 -14 0 -19 -2 -12 -5z"/>
<path d="M1715 700 c-3 -5 3 -10 15 -10 12 0 18 5 15 10 -3 6 -10 10 -15 10
-5 0 -12 -4 -15 -10z"/>
<path d="M2285 700 c-3 -5 1 -10 10 -10 9 0 13 5 10 10 -3 6 -8 10 -10 10 -2
0 -7 -4 -10 -10z"/>
<path d="M2900 676 c0 -19 -4 -37 -9 -40 -5 -3 -7 -15 -4 -26 3 -13 0 -20 -8
-20 -10 0 -10 -3 -2 -11 15 -15 33 -3 33 22 0 11 7 19 16 19 8 0 12 5 9 10 -4
6 -10 8 -14 5 -5 -2 -5 13 -1 35 6 31 4 40 -6 40 -9 0 -14 -12 -14 -34z"/>
<path d="M1080 690 c0 -13 52 -42 60 -33 5 4 -7 15 -26 24 -19 9 -34 13 -34 9z"/>
<path d="M1286 685 c4 -8 8 -15 10 -15 2 0 4 7 4 15 0 8 -4 15 -10 15 -5 0 -7
-7 -4 -15z"/>
<path d="M1311 668 c-7 -21 -16 -38 -20 -38 -11 0 -1 -49 10 -56 5 -3 9 11 9
31 0 20 5 45 11 56 6 11 8 25 6 32 -2 7 -9 -5 -16 -25z"/>
<path d="M1425 690 c-3 -5 1 -10 10 -10 9 0 13 5 10 10 -3 6 -8 10 -10 10 -2
0 -7 -4 -10 -10z"/>
<path d="M2604 694 c-8 -3 -9 -16 -4 -38 5 -24 4 -33 -6 -33 -9 0 -14 11 -14
29 0 15 -4 28 -10 28 -5 0 -10 -14 -10 -31 0 -22 5 -32 20 -36 23 -6 26 -19 8
-26 -9 -3 -7 -7 5 -12 10 -4 19 -6 21 -4 6 7 12 129 7 128 -3 0 -11 -3 -17 -5z"/>
<path d="M2305 670 c-3 -5 1 -10 10 -10 9 0 13 5 10 10 -3 6 -8 10 -10 10 -2
0 -7 -4 -10 -10z"/>
<path d="M2198 663 c7 -3 16 -2 19 1 4 3 -2 6 -13 5 -11 0 -14 -3 -6 -6z"/>
<path d="M1967 643 c-9 -10 -38 -20 -64 -24 l-48 -6 43 -2 c23 0 42 -5 42 -11
0 -5 -5 -10 -12 -10 -9 0 -9 -3 -1 -11 16 -16 33 -2 33 25 0 14 9 27 22 33 12
5 17 12 12 16 -6 3 -18 -1 -27 -10z"/>
<path d="M1096 613 c3 -55 3 -57 10 -50 11 11 11 87 -1 87 -6 0 -10 -16 -9
-37z"/>
<path d="M560 630 c-9 -6 -10 -10 -3 -10 6 0 15 5 18 10 8 12 4 12 -15 0z"/>
<path d="M2300 632 c0 -5 7 -9 15 -9 8 0 15 4 15 9 0 4 -7 8 -15 8 -8 0 -15
-4 -15 -8z"/>
<path d="M393 613 c-3 -10 -8 -21 -10 -25 -2 -4 10 0 26 10 17 9 31 21 31 27
0 5 -5 4 -12 -3 -15 -15 -32 -16 -23 -2 3 6 4 10 0 10 -3 0 -8 -8 -12 -17z"/>
<path d="M1990 620 c-24 -8 -23 -8 8 -9 17 -1 32 4 32 9 0 11 -5 11 -40 0z"/>
<path d="M2847 623 c-11 -10 -8 -33 4 -33 6 0 9 6 6 14 -3 8 -1 17 6 20 7 3 8
5 1 5 -6 1 -14 -2 -17 -6z"/>
<path d="M484 606 c-3 -8 0 -23 6 -33 10 -16 11 -16 7 4 -3 13 -1 26 4 29 5 3
9 1 9 -4 0 -6 8 -13 17 -16 15 -6 15 -4 -2 14 -21 24 -34 25 -41 6z"/>
<path d="M1048 613 c6 -2 18 -2 25 0 6 3 1 5 -13 5 -14 0 -19 -2 -12 -5z"/>
<path d="M336 574 c-5 -14 -4 -15 9 -4 17 14 19 20 6 20 -5 0 -12 -7 -15 -16z"/>
<path d="M450 570 c6 -11 13 -20 16 -20 2 0 0 9 -6 20 -6 11 -13 20 -16 20 -2
0 0 -9 6 -20z"/>
<path d="M1048 583 c6 -2 18 -2 25 0 6 3 1 5 -13 5 -14 0 -19 -2 -12 -5z"/>
<path d="M305 570 c-3 -5 -1 -10 4 -10 6 0 11 5 11 10 0 6 -2 10 -4 10 -3 0
-8 -4 -11 -10z"/>
<path d="M406 567 c3 -10 9 -15 12 -12 3 3 0 11 -7 18 -10 9 -11 8 -5 -6z"/>
<path d="M360 566 c0 -2 7 -7 16 -10 8 -3 12 -2 9 4 -6 10 -25 14 -25 6z"/>
<path d="M787 530 c3 -25 7 -47 9 -49 8 -9 2 55 -6 74 -6 13 -7 5 -3 -25z"/>
<path d="M26 529 c-3 -17 -5 -57 -5 -88 2 -49 3 -45 9 29 8 90 7 111 -4 59z"/>
<path d="M486 543 c6 -4 14 -15 17 -23 5 -11 6 -9 4 4 -1 11 -9 21 -17 23 -10
3 -11 2 -4 -4z"/>
<path d="M2670 456 c0 -18 -4 -24 -14 -20 -21 8 -47 -35 -35 -58 5 -10 17 -18
26 -18 15 0 15 1 -1 13 -21 15 -18 52 4 52 10 0 16 -12 18 -32 2 -18 7 -33 12
-33 12 0 11 108 -1 116 -5 3 -9 -6 -9 -20z"/>
<path d="M3040 460 c-36 -36 -21 -91 30 -104 l25 -7 -26 15 c-33 19 -43 54
-23 83 16 25 43 30 62 11 8 -8 12 -8 12 -1 0 12 -23 23 -46 23 -8 0 -23 -9
-34 -20z"/>
<path d="M3235 420 c0 -33 4 -60 10 -60 6 0 9 24 7 60 -5 78 -17 78 -17 0z"/>
<path d="M3281 423 c0 -35 2 -63 7 -63 4 0 6 21 4 48 -5 75 -10 82 -11 15z"/>
<path d="M394 459 c-3 -6 -20 -17 -38 -25 -17 -7 -23 -13 -14 -14 16 0 81 49
66 50 -4 0 -10 -5 -14 -11z"/>
<path d="M990 428 c0 -24 4 -48 8 -54 12 -18 42 -24 63 -14 15 9 19 21 17 63
l-1 52 -6 -50 c-5 -45 -9 -50 -33 -53 -27 -3 -28 -2 -28 47 0 28 -4 51 -10 51
-5 0 -10 -19 -10 -42z"/>
<path d="M1550 459 c0 -5 5 -7 10 -4 6 3 10 8 10 11 0 2 -4 4 -10 4 -5 0 -10
-5 -10 -11z"/>
<path d="M1797 418 c14 -29 27 -55 29 -57 2 -2 13 16 24 40 l20 44 -3 -42 c-1
-25 2 -43 8 -43 6 0 10 23 10 55 0 30 -4 55 -8 55 -5 0 -16 -18 -25 -40 -9
-22 -19 -40 -22 -40 -3 0 -13 18 -22 40 -9 22 -21 40 -27 40 -6 0 2 -24 16
-52z"/>
<path d="M2788 458 c-3 -7 2 -19 9 -27 11 -10 11 -16 3 -21 -8 -5 -7 -9 4 -13
9 -4 16 -13 16 -22 0 -8 6 -15 14 -15 9 0 6 14 -12 53 -30 63 -29 62 -34 45z"/>
<path d="M1590 410 c0 -39 4 -50 16 -50 10 0 12 5 7 13 -11 18 -12 36 -3 42
10 6 1 45 -11 45 -5 0 -9 -22 -9 -50z"/>
<path d="M2945 448 c-3 -9 -5 -31 -3 -49 2 -25 8 -34 23 -36 11 -2 14 0 8 3
-7 3 -13 17 -13 30 0 13 6 24 13 24 8 0 9 3 1 8 -6 4 -13 14 -16 22 -5 13 -7
13 -13 -2z"/>
<path d="M1130 432 c-15 -7 -22 -72 -8 -72 5 0 8 13 8 29 0 17 4 32 9 35 14 9
34 -22 28 -44 -3 -11 -1 -20 4 -20 16 0 10 67 -7 74 -9 3 -16 6 -17 5 -1 0 -9
-3 -17 -7z"/>
<path d="M1219 438 c-5 -18 -2 -78 4 -78 4 0 7 18 7 40 0 22 -2 40 -5 40 -3 0
-5 -1 -6 -2z"/>
<path d="M1250 439 c0 -10 30 -79 34 -79 2 0 7 7 10 16 3 8 2 12 -4 9 -6 -3
-10 0 -10 7 0 14 -29 59 -30 47z"/>
<path d="M1306 425 c-9 -26 -7 -32 5 -12 6 10 9 21 6 23 -2 3 -7 -2 -11 -11z"/>
<path d="M1342 428 c-30 -30 3 -90 39 -67 11 7 9 9 -8 9 -19 0 -23 6 -23 30 0
33 13 39 30 13 10 -17 10 -16 8 2 -4 23 -28 31 -46 13z"/>
<path d="M1428 432 c-13 -2 -18 -13 -18 -38 0 -19 5 -34 10 -34 6 0 10 13 10
29 0 16 6 31 13 34 17 6 5 14 -15 9z"/>
<path d="M1481 431 c-17 -11 -7 -41 14 -41 8 0 15 -7 15 -16 0 -8 5 -12 10 -9
17 10 11 25 -15 37 -25 11 -24 34 1 24 8 -3 14 -1 14 4 0 12 -20 13 -39 1z"/>
<path d="M1687 409 l-14 -34 -6 28 c-4 15 -12 27 -17 27 -6 0 -4 -16 5 -36 8
-20 15 -39 15 -43 0 -3 9 14 20 38 11 24 18 46 16 49 -3 2 -11 -11 -19 -29z"/>
<path d="M1929 436 c-3 -3 -3 -21 -1 -41 4 -31 7 -35 33 -35 26 0 29 3 29 35
0 19 -4 35 -10 35 -5 0 -10 -13 -10 -30 0 -45 -28 -40 -32 6 -2 20 -5 33 -9
30z"/>
<path d="M2021 426 c-10 -12 -7 -18 13 -31 14 -10 23 -22 19 -28 -3 -6 -1 -7
5 -3 19 11 14 33 -8 39 -11 3 -20 11 -20 17 0 7 7 10 15 6 8 -3 15 -1 15 4 0
15 -26 12 -39 -4z"/>
<path d="M2118 433 c6 -2 12 -11 12 -19 0 -8 5 -14 10 -14 6 0 10 4 10 8 0 12
-22 32 -34 31 -6 0 -5 -3 2 -6z"/>
<path d="M2278 432 c-13 -2 -18 -13 -18 -38 0 -19 4 -34 9 -34 5 0 8 11 5 24
-5 29 22 57 32 32 3 -9 4 -25 1 -36 -3 -11 -1 -20 3 -20 5 0 10 15 12 33 2 17
8 32 13 32 6 0 11 -15 13 -32 2 -18 7 -33 13 -33 14 0 11 58 -3 67 -14 9 -54
11 -80 5z"/>
<path d="M2446 432 c-3 -6 2 -9 11 -8 21 1 25 -45 4 -52 -10 -3 -12 0 -8 12 5
12 3 16 -5 14 -26 -9 -13 -33 18 -35 30 -1 30 0 25 35 -6 36 -32 55 -45 34z"/>
<path d="M2558 428 c7 -7 12 -25 12 -40 0 -15 5 -28 10 -28 6 0 10 13 10 28 0
28 -16 52 -34 52 -6 0 -5 -5 2 -12z"/>
<path d="M2890 432 c-17 -8 -21 -72 -4 -72 6 0 9 12 6 30 -3 23 0 30 12 30 9
0 16 5 16 10 0 11 -8 12 -30 2z"/>
<path d="M3156 432 c-3 -6 2 -9 12 -8 12 1 18 -8 20 -31 2 -18 7 -33 11 -33 4
0 5 17 2 37 -6 37 -32 56 -45 35z"/>
<path d="M3322 428 c-31 -31 3 -90 39 -67 11 7 9 9 -8 9 -19 0 -23 6 -23 30 0
31 16 41 26 15 4 -8 10 -15 15 -15 6 0 5 9 -1 20 -12 23 -30 26 -48 8z"/>
<path d="M3408 432 c-13 -2 -18 -13 -18 -38 0 -19 5 -34 10 -34 6 0 10 13 10
29 0 16 6 31 13 34 17 6 5 14 -15 9z"/>
<path d="M3456 421 c28 -68 28 -70 9 -90 -11 -13 -13 -21 -6 -21 15 0 42 63
30 71 -5 3 -10 16 -11 30 -1 14 -8 26 -15 26 -9 0 -11 -6 -7 -16z"/>
<path d="M3511 433 c-1 -6 -4 -20 -7 -30 -5 -17 -5 -17 6 0 6 10 9 23 6 30 -3
9 -5 9 -5 0z"/>
<path d="M792 400 c0 -19 2 -27 5 -17 2 9 2 25 0 35 -3 9 -5 1 -5 -18z"/>
<path d="M1548 395 c2 -19 8 -35 14 -35 12 0 5 63 -8 67 -6 2 -8 -11 -6 -32z"/>
<path d="M2087 414 c-14 -38 22 -79 47 -54 7 7 3 10 -11 10 -17 0 -22 7 -25
33 -3 28 -4 29 -11 11z"/>
<path d="M2160 401 c0 -31 24 -59 35 -41 3 5 1 10 -4 10 -6 0 -11 14 -11 30 0
17 -4 30 -10 30 -5 0 -10 -13 -10 -29z"/>
<path d="M2210 395 c0 -19 5 -35 10 -35 6 0 10 16 10 35 0 19 -4 35 -10 35 -5
0 -10 -16 -10 -35z"/>
<path d="M2525 395 c0 -19 3 -35 8 -35 4 0 7 16 7 35 0 19 -3 35 -7 35 -5 0
-8 -16 -8 -35z"/>
<path d="M2758 395 c-8 -19 -12 -35 -8 -35 9 0 35 59 28 65 -2 2 -11 -11 -20
-30z"/>
<path d="M3099 396 c7 -8 10 -20 6 -26 -3 -5 -1 -10 4 -10 17 0 13 37 -5 44
-14 5 -15 4 -5 -8z"/>
<path d="M3147 386 c-7 -17 1 -26 22 -26 13 0 13 2 2 9 -7 5 -10 14 -7 20 4 6
3 11 -2 11 -6 0 -12 -6 -15 -14z"/>
<path d="M31 365 c-1 -32 44 -119 85 -165 37 -40 114 -100 131 -100 4 0 -10
12 -32 26 -88 58 -143 129 -170 217 -8 23 -14 33 -14 22z"/>
<path d="M1650 325 c-7 -9 -8 -15 -2 -15 5 0 12 7 16 15 3 8 4 15 2 15 -2 0
-9 -7 -16 -15z"/>
<path d="M456 291 l-30 -36 34 32 c19 18 32 34 29 36 -2 2 -17 -12 -33 -32z"/>
<path d="M752 275 c-19 -42 -103 -125 -157 -156 -27 -16 -45 -29 -38 -29 28 0
138 89 176 142 23 32 38 60 35 63 -2 3 -10 -6 -16 -20z"/>
<path d="M1085 215 c0 -37 4 -65 10 -65 6 0 10 15 10 33 0 22 5 32 15 32 10 0
16 -12 18 -32 2 -18 7 -33 11 -33 4 0 5 17 2 38 -6 30 -11 37 -29 36 -18 0
-22 5 -22 28 0 15 -3 28 -7 28 -5 0 -8 -29 -8 -65z"/>
<path d="M980 261 c0 -5 8 -8 18 -7 14 1 17 -8 17 -52 0 -28 5 -52 10 -52 6 0
9 23 7 55 -3 44 -1 55 11 55 9 0 18 -5 20 -10 3 -6 4 -5 3 2 -3 15 -86 23 -86
9z"/>
<path d="M1298 231 c6 -72 11 -81 40 -81 15 0 33 5 40 12 14 14 16 108 2 108
-5 0 -7 -13 -4 -30 10 -49 -2 -80 -32 -80 -25 0 -26 2 -22 54 2 44 0 54 -12
53 -12 -1 -15 -10 -12 -36z"/>
<path d="M2170 251 c-13 -25 -13 -101 0 -101 6 0 10 13 10 29 0 16 6 32 13 34
10 4 10 6 0 6 -7 1 -13 10 -13 20 0 11 6 22 13 24 9 4 9 6 0 6 -7 1 -17 -8
-23 -18z"/>
<path d="M2258 209 c3 -38 8 -59 16 -59 8 0 11 10 8 30 -4 28 -2 30 28 30 30
0 32 -2 28 -30 -3 -20 0 -30 8 -30 8 0 13 21 16 59 2 49 0 59 -13 58 -11 -1
-14 -8 -11 -24 4 -20 0 -23 -28 -23 -28 0 -32 3 -28 23 3 16 0 23 -11 24 -13
1 -15 -9 -13 -58z"/>
<path d="M2695 208 c0 -36 4 -58 11 -58 7 0 9 11 6 28 l-5 27 30 -27 c16 -16
35 -28 41 -28 7 0 -2 13 -20 29 l-33 30 29 30 c17 17 25 31 18 31 -6 0 -19
-11 -28 -25 -21 -31 -38 -32 -32 -2 3 13 0 24 -6 24 -7 0 -11 -24 -11 -59z"/>
<path d="M383 253 c9 -2 23 -2 30 0 6 3 -1 5 -18 5 -16 0 -22 -2 -12 -5z"/>
<path d="M1899 235 c-8 -39 2 -85 20 -84 10 0 11 2 4 6 -7 2 -13 16 -13 29 0
13 6 24 13 24 8 0 9 3 1 8 -6 4 -13 14 -16 22 -4 11 -6 10 -9 -5z"/>
<path d="M1192 221 c-8 -4 -12 -21 -10 -37 2 -23 9 -30 28 -31 25 -3 25 -3 3
7 -31 13 -29 30 3 30 19 0 25 5 22 17 -4 20 -27 27 -46 14z m33 -11 c3 -5 -3
-10 -15 -10 -12 0 -18 5 -15 10 3 6 10 10 15 10 5 0 12 -4 15 -10z"/>
<path d="M1420 191 c0 -23 5 -41 10 -41 6 0 10 15 10 34 0 19 -4 38 -10 41 -6
4 -10 -10 -10 -34z"/>
<path d="M1458 218 c7 -7 12 -25 12 -40 0 -15 5 -28 10 -28 6 0 10 13 10 28 0
28 -16 52 -34 52 -6 0 -5 -5 2 -12z"/>
<path d="M1520 190 c0 -22 5 -40 10 -40 6 0 10 18 10 40 0 22 -4 40 -10 40 -5
0 -10 -18 -10 -40z"/>
<path d="M1566 203 c7 -16 14 -34 14 -40 0 -7 5 -13 11 -13 7 0 8 7 4 18 -4 9
-10 27 -12 40 -3 12 -11 22 -19 22 -10 0 -10 -5 2 -27z"/>
<path d="M1610 215 c0 -8 2 -15 4 -15 2 0 6 7 10 15 3 8 1 15 -4 15 -6 0 -10
-7 -10 -15z"/>
<path d="M1652 221 c-8 -4 -12 -21 -10 -37 2 -23 9 -30 28 -31 25 -3 25 -3 3
7 -31 13 -29 30 3 30 19 0 25 5 22 17 -4 20 -27 27 -46 14z m33 -11 c3 -5 -3
-10 -15 -10 -12 0 -18 5 -15 10 3 6 10 10 15 10 5 0 12 -4 15 -10z"/>
<path d="M1718 188 c-2 -23 1 -38 8 -38 6 0 9 12 6 30 -3 23 0 30 12 30 9 0
16 4 16 9 0 6 -9 9 -19 8 -15 -1 -20 -10 -23 -39z"/>
<path d="M1784 215 c-7 -18 3 -35 23 -35 10 0 13 -6 9 -16 -3 -8 -2 -12 4 -9
17 11 11 33 -11 40 -12 4 -18 12 -15 21 3 8 3 14 0 14 -2 0 -7 -7 -10 -15z"/>
<path d="M1859 228 c-6 -21 -1 -78 6 -78 6 0 9 17 7 40 -3 33 -9 50 -13 38z"/>
<path d="M1954 214 c3 -9 9 -27 12 -40 3 -13 11 -24 16 -24 6 0 7 8 3 18 -4 9
-10 27 -12 40 -3 12 -10 22 -15 22 -6 0 -7 -7 -4 -16z"/>
<path d="M1997 208 c-9 -31 -2 -33 11 -3 6 14 8 25 3 25 -5 0 -11 -10 -14 -22z"/>
<path d="M2081 216 c-16 -19 -7 -61 13 -69 12 -5 12 -2 1 20 -16 30 -9 55 14
51 11 -3 16 -13 14 -37 -1 -22 2 -30 9 -23 5 5 8 22 6 38 -4 33 -37 45 -57 20z"/>
<path d="M2390 216 c-14 -18 -10 -58 8 -64 11 -3 11 0 1 16 -14 23 -6 52 15
52 19 0 28 -28 16 -51 -7 -13 -7 -19 -1 -19 17 0 25 49 11 65 -16 19 -34 19
-50 1z"/>
<path d="M2468 188 c-2 -22 1 -38 7 -38 6 0 10 15 10 33 0 22 5 32 15 32 10 0
16 -12 18 -32 2 -18 7 -33 11 -33 4 0 5 17 2 38 -5 31 -10 37 -33 38 -23 1
-27 -3 -30 -38z"/>
<path d="M2570 215 c-8 -10 -9 -19 -2 -27 5 -8 6 -22 1 -33 -12 -31 -10 -42 7
-49 14 -5 15 -4 5 8 -16 19 -6 36 20 36 22 0 25 -19 7 -40 -11 -12 -10 -12 5
-1 25 20 22 51 -6 51 -18 0 -23 6 -25 31 -2 21 1 29 10 26 7 -2 12 -13 11 -23
-1 -18 -1 -18 13 0 11 16 11 22 1 28 -18 12 -33 10 -47 -7z"/>
<path d="M2812 221 c-17 -10 -12 -63 6 -69 11 -3 11 0 1 16 -15 24 -6 52 17
52 13 0 15 -8 12 -35 -3 -27 -1 -32 9 -23 16 13 17 40 1 56 -14 14 -28 15 -46
3z"/>
<path d="M2900 191 c0 -23 5 -41 10 -41 6 0 10 15 10 34 0 19 -4 38 -10 41 -6
4 -10 -10 -10 -34z"/>
<path d="M2938 218 c7 -7 12 -25 12 -40 0 -15 5 -28 10 -28 6 0 8 12 4 28 -10
46 -13 52 -26 52 -9 0 -9 -3 0 -12z"/>
<path d="M3000 215 c-10 -12 -10 -19 -2 -27 7 -7 7 -19 1 -35 -17 -46 23 -70
55 -34 21 23 14 41 -17 41 -17 0 -22 6 -24 30 -2 22 2 30 14 30 10 0 14 -6 10
-20 -3 -11 -2 -20 3 -20 15 0 18 39 3 44 -22 9 -29 7 -43 -9z m50 -79 c0 -8
-5 -18 -10 -21 -17 -11 -40 3 -34 20 8 19 44 20 44 1z"/>
<path d="M457 193 c-12 -11 -8 -23 7 -23 8 0 17 -6 19 -12 4 -10 6 -10 6 0 1
7 -7 16 -16 19 -15 6 -15 7 3 14 14 6 15 8 3 8 -9 1 -19 -2 -22 -6z"/>
<path d="M565 191 c-3 -7 0 -8 10 -5 11 4 14 2 9 -9 -3 -8 -1 -18 5 -22 7 -4
10 2 8 16 -4 25 -22 36 -32 20z"/>
<path d="M238 165 c2 -14 6 -25 8 -25 2 0 4 11 4 25 0 14 -4 25 -9 25 -4 0 -6
-11 -3 -25z"/>
<path d="M330 175 c0 -8 4 -15 10 -15 5 0 7 7 4 15 -4 8 -8 15 -10 15 -2 0 -4
-7 -4 -15z"/>
<path d="M363 184 c3 -4 1 -16 -5 -28 -10 -19 -10 -20 5 -7 19 16 23 41 5 41
-6 0 -8 -3 -5 -6z"/>
<path d="M1961 123 c-7 -8 -11 -16 -8 -19 2 -2 10 2 17 11 17 20 9 27 -9 8z"/>
<path d="M270 90 c8 -5 22 -9 30 -9 10 0 8 3 -5 9 -27 12 -43 12 -25 0z"/>
<path d="M328 73 c6 -2 18 -2 25 0 6 3 1 5 -13 5 -14 0 -19 -2 -12 -5z"/>
<path d="M478 73 c6 -2 18 -2 25 0 6 3 1 5 -13 5 -14 0 -19 -2 -12 -5z"/>
<path d="M393 63 c9 -2 25 -2 35 0 9 3 1 5 -18 5 -19 0 -27 -2 -17 -5z"/>
</g>
</svg>
